<svg width="800" height="500" xmlns="http://www.w3.org/2000/svg">
<rect width="100%" height="100%" fill="#ffffff"/>
<line x1="60" y1="440.0" x2="740" y2="440.0" stroke="#e0e0e0" stroke-width="1"/>
<text x="55" y="445.0" font-family="Arial" font-size="12" text-anchor="end">0</text>
<line x1="60" y1="392.5" x2="740" y2="392.5" stroke="#e0e0e0" stroke-width="1"/>
<text x="55" y="397.5" font-family="Arial" font-size="12" text-anchor="end">100</text>
<line x1="60" y1="345.0" x2="740" y2="345.0" stroke="#e0e0e0" stroke-width="1"/>
<text x="55" y="350.0" font-family="Arial" font-size="12" text-anchor="end">200</text>
<line x1="60" y1="297.5" x2="740" y2="297.5" stroke="#e0e0e0" stroke-width="1"/>
<text x="55" y="302.5" font-family="Arial" font-size="12" text-anchor="end">300</text>
<line x1="60" y1="250.0" x2="740" y2="250.0" stroke="#e0e0e0" stroke-width="1"/>
<text x="55" y="255.0" font-family="Arial" font-size="12" text-anchor="end">400</text>
<line x1="60" y1="202.5" x2="740" y2="202.5" stroke="#e0e0e0" stroke-width="1"/>
<text x="55" y="207.5" font-family="Arial" font-size="12" text-anchor="end">500</text>
<line x1="60" y1="155.0" x2="740" y2="155.0" stroke="#e0e0e0" stroke-width="1"/>
<text x="55" y="160.0" font-family="Arial" font-size="12" text-anchor="end">600</text>
<line x1="60" y1="107.5" x2="740" y2="107.5" stroke="#e0e0e0" stroke-width="1"/>
<text x="55" y="112.5" font-family="Arial" font-size="12" text-anchor="end">700</text>
<line x1="60" y1="60.0" x2="740" y2="60.0" stroke="#e0e0e0" stroke-width="1"/>
<text x="55" y="65.0" font-family="Arial" font-size="12" text-anchor="end">800</text>
<line x1="60" y1="440" x2="740" y2="440" stroke="#000000" stroke-width="2"/>
<line x1="60" y1="60" x2="60" y2="440" stroke="#000000" stroke-width="2"/>
<rect x="105.33333333333333" y="348.0875" width="41.33333333333333" height="91.91250000000001" fill="#3498db"/>
<text x="126.0" y="343.0875" font-family="Arial" font-size="10" text-anchor="middle">193</text>
<rect x="150.66666666666666" y="339.34749999999997" width="41.33333333333333" height="100.6525" fill="#2980b9"/>
<text x="171.33333333333331" y="334.34749999999997" font-family="Arial" font-size="10" text-anchor="middle">211</text>
<rect x="196.0" y="296.02750000000003" width="41.33333333333333" height="143.9725" fill="#e74c3c"/>
<text x="216.66666666666666" y="291.02750000000003" font-family="Arial" font-size="10" text-anchor="middle">303</text>
<rect x="241.33333333333331" y="316.025" width="41.33333333333333" height="123.975" fill="#c0392b"/>
<text x="262.0" y="311.025" font-family="Arial" font-size="10" text-anchor="middle">261</text>
<text x="196.0" y="460" font-family="Arial" font-size="14" text-anchor="middle">256^3</text>
<rect x="331.99999999999994" y="324.005" width="41.33333333333333" height="115.99499999999999" fill="#3498db"/>
<text x="352.66666666666663" y="319.005" font-family="Arial" font-size="10" text-anchor="middle">244</text>
<rect x="377.33333333333326" y="279.45000000000005" width="41.33333333333333" height="160.54999999999998" fill="#2980b9"/>
<text x="397.99999999999994" y="274.45000000000005" font-family="Arial" font-size="10" text-anchor="middle">338</text>
<rect x="422.66666666666663" y="242.2575" width="41.33333333333333" height="197.7425" fill="#e74c3c"/>
<text x="443.3333333333333" y="237.2575" font-family="Arial" font-size="10" text-anchor="middle">416</text>
<rect x="467.99999999999994" y="212.0475" width="41.33333333333333" height="227.9525" fill="#c0392b"/>
<text x="488.66666666666663" y="207.0475" font-family="Arial" font-size="10" text-anchor="middle">479</text>
<text x="422.66666666666663" y="460" font-family="Arial" font-size="14" text-anchor="middle">512^3</text>
<rect x="558.6666666666666" y="314.26750000000004" width="41.33333333333333" height="125.73249999999999" fill="#3498db"/>
<text x="579.3333333333333" y="309.26750000000004" font-family="Arial" font-size="10" text-anchor="middle">264</text>
<rect x="604.0" y="259.5" width="41.33333333333333" height="180.5" fill="#2980b9"/>
<text x="624.6666666666666" y="254.5" font-family="Arial" font-size="10" text-anchor="middle">380</text>
<rect x="649.3333333333333" y="204.3525" width="41.33333333333333" height="235.6475" fill="#e74c3c"/>
<text x="669.9999999999999" y="199.3525" font-family="Arial" font-size="10" text-anchor="middle">496</text>
<rect x="694.6666666666666" y="124.64750000000004" width="41.33333333333333" height="315.35249999999996" fill="#c0392b"/>
<text x="715.3333333333333" y="119.64750000000004" font-family="Arial" font-size="10" text-anchor="middle">663</text>
<text x="649.3333333333333" y="460" font-family="Arial" font-size="14" text-anchor="middle">1024^3</text>
<rect x="640" y="60" width="15" height="15" fill="#3498db"/>
<text x="660" y="72" font-family="Arial" font-size="12">OB (8T)</text>
<rect x="640" y="80" width="15" height="15" fill="#2980b9"/>
<text x="660" y="92" font-family="Arial" font-size="12">W2 (8T)</text>
<rect x="640" y="100" width="15" height="15" fill="#e74c3c"/>
<text x="660" y="112" font-family="Arial" font-size="12">OB (16T)</text>
<rect x="640" y="120" width="15" height="15" fill="#c0392b"/>
<text x="660" y="132" font-family="Arial" font-size="12">W2 (16T)</text>
<text x="400" y="30" font-family="Arial" font-size="18" text-anchor="middle" font-weight="bold">SGEMM Performance: Week 2 vs OpenBLAS (GFLOP/s)</text>
</svg>